<svg xmlns="http://www.w3.org/2000/svg" viewBox="0 0 693 166.92"><defs><style>.cls-1,.cls-4{fill:#85ac1c;}.cls-2,.cls-3{fill:#3c3c3b;}.cls-3,.cls-4{font-size:150px;font-family:Montserrat-Bold, Montserrat;font-weight:700;}</style></defs><title>LogoCar2Go</title><g id="Capa_2" data-name="Capa 2"><g id="Logo"><path class="cls-1" d="M479.68,38.09c-1.43-1.29-5.17-2.82-6.93-3.35-3.94-1.2-10.63-2.51-13.69-.23-4.08,3.06-6.71,9-8.11,12.39-.51,1.26-1.63,2-2.44.89s-2.41-8.07-3.06-11a30,30,0,0,0-.9-3.25c-1.82-5.38-7.51-19.81-16.63-21.19C420.39,11.25,399.14,11,386,11c20.72,3.52,34.93,18.18,34.95,38.07,0,16.36-7.08,29-28.39,44.47l-22.2,17.26,51.72,0,0,18.72h3.64l3.74,8.86h37.44l5.79-8.86s.21-41.6,0-55.47c-.06-3.78-.34-10.85-5.79-14s-7.14-3.43-8.31-5.1c-1.59-2.26-1-3.77,0-5.26a8.21,8.21,0,0,1,4.27-3.6c4.08-1.36,16.46-1.32,17.64-3.47A3.52,3.52,0,0,0,479.68,38.09Zm-16.12,31s1,14.85-10.75,20.7c-4.48,2.24-22.08,7.73-28.95,3.68-6.32-3.73.25-11.26,12.87-18C452.28,67.07,463.56,69.1,463.56,69.1Z"/><path class="cls-2" d="M375.4,34c-11.91,0-21,6.06-29.83,16.2L328.84,34.07C338.77,21.48,351,13.46,366,11c-12.91,0-36,.18-43.94,1.39-9.13,1.38-14.82,15.81-16.63,21.19a32.55,32.55,0,0,0-.91,3.25c-.64,2.89-2.26,9.88-3.06,11s-1.93.37-2.44-.89c-1.4-3.42-4-9.33-8.11-12.39-3.05-2.28-9.74-1-13.68.23-1.77.53-5.5,2.06-6.94,3.35a3.52,3.52,0,0,0-.76,4.52c1.18,2.15,13.55,2.11,17.63,3.47a8.17,8.17,0,0,1,4.27,3.6c.93,1.49,1.56,3,0,5.26-1.17,1.67-2.94,2.05-8.31,5.1s-5.73,10.18-5.79,14c-.21,13.87,0,55.47,0,55.47l5.79,8.86h37.44l3.75-8.86h5.54V113.16l44.93-34.89c14.56-11.56,19.17-19.56,19.17-28.1C393.9,40,385.36,34,375.4,34ZM326.12,93.48c-6.86,4-24.47-1.44-28.95-3.68-11.7-5.85-10.75-20.7-10.75-20.7s11.29-2,26.83,6.33C325.87,82.22,332.44,89.75,326.12,93.48Z"/><text class="cls-3" transform="matrix(1, 0.01, -0.01, 1, 0.29, 127.42)">Car</text><text class="cls-4" transform="translate(483.15 129.1)">Go</text></g></g></svg>